<?xml version="1.0" encoding="utf-8"?>
<!-- Generator: Adobe Illustrator 18.1.1, SVG Export Plug-In . SVG Version: 6.00 Build 0)  -->
<svg version="1.1" id="Layer_1" xmlns="http://www.w3.org/2000/svg" xmlns:xlink="http://www.w3.org/1999/xlink" x="0px" y="0px"
	 viewBox="0 0 1280 800" enable-background="new 0 0 1280 800" xml:space="preserve">
<path fill="none" stroke="#ED1C24" stroke-miterlimit="10" d="M779.2,286.7"/>
<path opacity="0.67" fill="#F15A24" d="M203.1,408.5c0,0,20.8,22.5-14.1,41c-7.4,3.9-18.9,8.5-31.2,10c-4.5,11.9-0.2,25.9-0.2,25.9
	l3.5,12.1c0,0,11.2,3.6,12,5.6c-8.5,0-15.2,0-15.2,0l-4-4.1c0,0-2-20.1-6.7-27.3c-1.2-6.2,2-11.4,2-11.4s-27.9-5-34.8-8.4
	c-10.4,0.5-26.9-1.5-26.9-1.5s-9.5,4.2-13.7,3.2c3.2-2.7,0.7-1.5,0.7-1.5h-2.1l3.9-2.5l-7.7-0.9l6.5-3.6H71c0,0,7.8-5.6,19.8-6.6
	c6.2-4,17.4-10.9,17.4-10.9s13.2-11.2,21.1-13.9c7.7-5.7,34.1-14.7,47.8-11.2c1.5-7.2,7-15.9,17.7-15.9s11.9,4.5,14.7,10.5
	c3,3.7,6.2,3.2,6.2,3.2s30.4,7,32.6,19.4C239.1,410.2,214.2,399.1,203.1,408.5z"/>
<path opacity="0.65" fill="#F15A24" d="M430.3,383.9l-0.2,13c0,0-1.1,5.6,2,12.1c3.1,6.5,10.3,17.3,0.4,32.2
	c-9.9,14.8-30.1,18.4-30.1,18.4l-1.8,10.6c0,0-1.1,8.5,5.2,6.3c7-0.7,14.8,1.3,14.8,1.3s-3.8,0.7-3.4,2.9c-3.6-0.7-7.6,1.3-7.6,1.3
	s-1.8-1.8-5.8-2c-4-0.2-6.7-3.4-6.7-7.6s0.4-5.2,0.4-5.2l-4.5-5.4l5.2,1.1l1.1-3.1c0,0-12.8,0.7-14.4-0.4c-0.2,3.6,1.3,5.4,1.3,5.4
	s-4,7.2,0.4,11.5c4.5,4.3,12.8,2.9,12.8,2.9l-2,2.9c0,0-1.3-2.5-2.7-0.4c-1.3,2-3.6,2.9-5.8,1.8s-5.2,0.4-5.2,0.4l-9.9-2.5l7.4-3.1
	c0,0-2.7-9,1.1-18.7c-15.5,1.8-29.5-3.4-29.5-3.4s-6.1-0.2-10.6-4c-3.1-1.1-11.2-6.5-6.1-7.9c-12.1-5.4-17.8-10.8-17.8-10.8
	s16.2,1.1,23.8,5.2c-11.9-5.4-12.4-7-12.4-7s16.9,8.1,21.1,1.6c-10.8-2.5-11.7-3.1-11.7-3.1l3.8-0.9l4.5,1.6c0,0-0.9,2.9,9.4-5.2
	c10.3-8.1,32.4-14.2,45.4-10.8c13,3.4,18-11.2,15.7-22.5c-6.3-11-10.6-23.4,2.7-27.9c13.3-4.5,16.4,3.6,21.4,9.7
	c4.9,6.1,14.4,4.9,14.4,4.9s11.9,5.4-1.1,7.2c-6.1,1.8-11.7-0.9-11.7-0.9S435.9,381.8,430.3,383.9z"/>
<path opacity="0.65" fill="#F15A24" d="M609.7,229.6c0,0-28.4-40.7-43-33.5c0,1.3,3.2,3,3.2,4.2c0,1.3-3.1-2.1-3.1-0.9
	c0,2,0.1,2.3,0.1,4.1c0,1,3.5,2.6,3.5,3.5c0.1,2.7-3.4-2.6-3.4-0.4c0,1,0.1,3,0.1,3.9c0,2,3.2,0.4,3.2,1.8c0,0.6-2.8,0.8-2.8,1.3
	c0,0.3,0,0.9,0,1.8c0,0.7,3.1,1.6,3.1,2.5c0,0.9-3.2-0.4-3.2,0.6c0,0.6,0,2,0,2.6c0,1.1,4,2.4,3.9,3.5c0,0.7-3.9-0.2-3.9,0.4
	c0,2.7-0.1,7.3-0.1,7.3s27.8,17,28.4,25.8c0.6,8.8,20.2,28,30,29.6c2.5,13.9,2.5,13.9,2.5,13.9l-9.1,1.9l5.4,1.9l-6,4.4l13.6-2.5
	l12.6,2.2l-7.3-4.7l10.4,0.3l-14.2-3.5l-0.9-12.9l12,0.6l5,8.2l-6.9,5l8.5-1.6l3.2,4.4l1.6-3.4h17.3l-18-5.5l-5-6.1
	c0,0,8.5-11.1,13.9-9.8c10.1-2.2,26.8-12.3,27.4-29.7c0.6-17.3-6-49.5-6-49.5s1.9-4.1,6-2.2c1.3-5.4,0.9-5.4,4.4-5.4
	c3.5,0,7.3,2.2,7.3,2.2l-4.7-7.9c0,0-2.8-14.8-17-3.5c-15.1,1.6-17.3,11.7-21.4,24.6c-4.1,12.9-6.6,18-16.4,18.9
	C634.1,229.1,609.7,229.6,609.7,229.6z"/>
<path opacity="0.67" fill="#F15A24" d="M692.4,383.2c0,0-8.6,18-3.6,30.1c3.6,7.9-0.4,9.7-3.5,12.8c-3.1,3.1,0.8,9.5,0.8,9.5
	l0.1,15.6c0,0-1.7,2.4,1.5,4.6c1.6,2.8,1.6,2.3,1.6,2.3h6.9l-4.4-3.8c0,0,2.6-14.1,1.7-15c-0.8-0.9,2.7-4.2,3.5-4.2
	c0.8,0,13.4-10.2,13.8-11.6c0.4-1.5,2,0.7,2,0.7v10.4c0,0,1.1-0.2,2.6,2.4c1.5,2.6,7.1,10.1,11.7,12.8c0,2.4,0.5,2.2,0.5,2.2
	l3.2,0.7c0,0,0.8,2.8,1.6,3.1c0.8,0.3,6.4,0,6.4,0s-12.7-17.4-12.9-19.2c-0.3-1.9-1.8-11.3,2-17.9c4.8,5.7,16.9,10.9,24.9,11.7
	c12.2,1.3,20.9-6.1,20.9-6.1s-2.2,11.4-1.5,13.2c-0.7,5.1-4.3,9.6-4.3,9.6s-2.2,5.4,0.4,5.8c0.1,2.7,3.4,4.6,3.4,4.6l9.6-0.1
	c0,0-3.9-6.9-5.2-7.3c-1.3-0.4,1.1-7.5,5.9-11.4c4.8-3.9,9-10.1,9.1-10.6c0.1-0.5,14.7,14.1,17.4,28.1c2.4-2,2.4-2,2.4-2l1.5,3.3
	l3.6,3.8h8.1c0,0-7-9.2-8.3-11.1s-2.4-15.9-1.7-21.4c0.7-5.5,9.3-11.1,19.9-5.9c16.8,3.2,23.8,0.3,24.2-0.2
	c0.4-0.5,3.9-7.3,3.5-10.5c-2.6,1.2-3.2,0-3.2,0s-12.4-3.9-14.8-18c5.9-4.3,7.1-16.1,2.4-15.7c-5.7,3.9-7.4,7.8-7.4,7.8
	s-2.4,3.2-5.4,0.4c-1-1-27.1-13.8-46.5-16.6c-36.2-5.2-77.6-0.1-88.4,9.4c1.3-6.1-4.6-8.1-7.9-5.7S688.7,381.7,692.4,383.2z"/>
<g opacity="0.65">
	<rect x="999.4" y="432.8" fill="#F15A24" width="11.9" height="48.5"/>
	<rect x="1014.1" y="433.4" fill="#F15A24" width="11.9" height="47.9"/>
	<circle fill="#F15A24" cx="1005.4" cy="480.9" r="5.9"/>
	<circle fill="#F15A24" cx="1020" cy="480.9" r="5.9"/>
	<path fill="#F15A24" d="M1023.5,434.7h-21.5c-1.4,0-2.5-1.1-2.5-2.5V388c0-1.4,1.1-2.5,2.5-2.5h21.5c1.4,0,2.5,1.1,2.5,2.5v44.2
		C1026,433.6,1024.9,434.7,1023.5,434.7z"/>
	<path fill="#F15A24" d="M1001.8,401.7h-4.6h-8.7c0,0-1.7-14.1,11.9-16.2"/>
	<rect x="988.3" y="400.9" fill="#F15A24" width="9" height="29.7"/>
	<ellipse fill="#F15A24" cx="992.8" cy="430.7" rx="4.5" ry="4.5"/>
	<path fill="#F15A24" d="M1023.2,401.7h4.8h9c0,0,2.1-14.1-12-16.2"/>
	<rect x="1028" y="401" fill="#F15A24" width="9.1" height="29.6"/>
	<ellipse fill="#F15A24" cx="1032.6" cy="430.4" rx="4.6" ry="4.4"/>
	<circle fill="#F15A24" cx="1012.7" cy="372.6" r="10.1"/>
</g>
<rect x="99.2" y="424.3" fill="none" width="115" height="30.9"/>
<text transform="matrix(1 0 0 1 122.6032 435.1162)" fill="#FFFFFF" font-family="'SanFranciscoDisplay-Semibold'" font-size="15.4505">Shorebird</text>
<rect x="336.5" y="428.6" fill="none" width="115" height="30.9"/>
<text transform="matrix(1 0 0 1 358.9571 439.4424)" fill="#FFFFFF" font-family="'SanFranciscoDisplay-Semibold'" font-size="15.4505">Waterfowl</text>
<rect x="584.3" y="241.3" fill="none" width="115" height="30.9"/>
<text transform="matrix(1 0 0 1 609.2009 252.1826)"><tspan x="0" y="0" fill="#FFFFFF" font-family="'SanFranciscoDisplay-Semibold'" font-size="15.4505">Domestic</tspan><tspan x="16.6" y="18.5" fill="#FFFFFF" font-family="'SanFranciscoDisplay-Semibold'" font-size="15.4505">Fowl</tspan></text>
<rect x="688.7" y="381.6" fill="none" width="149.6" height="30.9"/>
<text transform="matrix(1 0 0 1 730.0981 392.4732)"><tspan x="0" y="0" fill="#FFFFFF" font-family="'SanFranciscoDisplay-Semibold'" font-size="15.4505">Mammals</tspan><tspan x="-20.7" y="18.5" fill="#FFFFFF" font-family="'SanFranciscoDisplay-Light'" font-size="15.4505">(primarily swine)</tspan></text>
<g opacity="0.65">
	<rect x="1163.1" y="434.6" fill="#F15A24" width="11.9" height="48.5"/>
	<rect x="1177.8" y="435.2" fill="#F15A24" width="11.9" height="47.9"/>
	<circle fill="#F15A24" cx="1169" cy="482.7" r="5.9"/>
	<circle fill="#F15A24" cx="1183.7" cy="482.7" r="5.9"/>
	<path fill="#F15A24" d="M1187.1,436.5h-21.5c-1.4,0-2.5-1.1-2.5-2.5v-44.2c0-1.4,1.1-2.5,2.5-2.5h21.5c1.4,0,2.5,1.1,2.5,2.5V434
		C1189.6,435.4,1188.5,436.5,1187.1,436.5z"/>
	<path fill="#F15A24" d="M1165.4,403.5h-4.6h-8.7c0,0-1.7-14.1,11.9-16.2"/>
	<rect x="1151.9" y="402.7" fill="#F15A24" width="9" height="29.7"/>
	<ellipse fill="#F15A24" cx="1156.4" cy="432.5" rx="4.5" ry="4.5"/>
	<path fill="#F15A24" d="M1186.9,403.5h4.8h9c0,0,2.1-14.1-12-16.2"/>
	<rect x="1191.7" y="402.8" fill="#F15A24" width="9.1" height="29.6"/>
	<ellipse fill="#F15A24" cx="1196.2" cy="432.2" rx="4.6" ry="4.4"/>
	<circle fill="#F15A24" cx="1176.4" cy="374.4" r="10.1"/>
</g>
<g>
	<g>
		<path fill="none" stroke="#999999" stroke-width="6" stroke-miterlimit="10" d="M153.8,353.4c14.6-25.1,49.7-70,113.1-70
			c88,0,114.7,85,114.7,85"/>
		<g>
			<path fill="#999999" d="M145.5,369.9c6.8-6.3,16.6-13.4,24.9-16.7l-15.4-1.9L144.5,340C146.6,348.6,146.6,360.7,145.5,369.9z"/>
		</g>
	</g>
</g>
<g>
	<g>
		<path fill="none" stroke="#999999" stroke-width="6" stroke-miterlimit="10" d="M372.7,518c-14.6,25.1-49.7,70-113.1,70
			c-88,0-114.7-85-114.7-85"/>
		<g>
			<path fill="#999999" d="M381,501.5c-6.8,6.3-16.6,13.4-24.9,16.7l15.4,1.9l10.6,11.3C379.9,522.8,379.9,510.7,381,501.5z"/>
		</g>
	</g>
</g>
<g>
	<g>
		<path fill="none" stroke="#999999" stroke-width="6" stroke-miterlimit="10" d="M469.3,347.6c0,0,25.2-46.6,63.3-58.9"/>
		<g>
			<path fill="#999999" d="M550.9,285.8c-8,4.7-17.7,12-23.2,18.9l2.7-15.2l-7.7-13.4C530.2,280.6,541.8,284.2,550.9,285.8z"/>
		</g>
	</g>
</g>
<g>
	<g>
		<path fill="none" stroke="#999999" stroke-width="6" stroke-miterlimit="10" d="M714.8,281.4c0,0,49.1,19.9,65.4,56.6"/>
		<g>
			<path fill="#999999" d="M785.1,355.8c-5.5-7.4-13.8-16.2-21.3-21l15.4,1l12.5-9.1C788,334.6,785.7,346.5,785.1,355.8z"/>
		</g>
	</g>
</g>
<g>
	<g>
		<line fill="none" stroke="#999999" stroke-width="6" stroke-miterlimit="10" x1="897" y1="418" x2="947" y2="418"/>
		<g>
			<path fill="#999999" d="M878.5,418.1c8.7,3.2,19.5,8.7,26.2,14.6l-5.3-14.6l5.3-14.5C897.9,409.4,887.2,414.9,878.5,418.1z"/>
		</g>
		<g>
			<path fill="#999999" d="M965,418.1c-8.7,3.2-19.5,8.7-26.2,14.6l5.3-14.6l-5.3-14.5C945.5,409.4,956.3,414.9,965,418.1z"/>
		</g>
	</g>
</g>
<g>
	<g>
		<line fill="none" stroke="#999999" stroke-width="6" stroke-miterlimit="10" x1="1070" y1="418" x2="1120" y2="418"/>
		<g>
			<path fill="#999999" d="M1051.5,418.1c8.7,3.2,19.5,8.7,26.2,14.6l-5.3-14.6l5.3-14.5C1071,409.4,1060.2,414.9,1051.5,418.1z"/>
		</g>
		<g>
			<path fill="#999999" d="M1138,418.1c-8.7,3.2-19.5,8.7-26.2,14.6l5.3-14.6l-5.3-14.5C1118.6,409.4,1129.4,414.9,1138,418.1z"/>
		</g>
	</g>
</g>
<g>
	<g>
		<path fill="none" stroke="#999999" stroke-width="6" stroke-miterlimit="10" d="M1162.3,318.3c-1.4-1.2-3-2.4-4.7-3.7"/>
		<path fill="none" stroke="#999999" stroke-width="6" stroke-miterlimit="10" stroke-dasharray="12.0681,12.0681" d="M1147.8,307.6
			c-44.9-29.5-156.6-75.9-416.7-77.3"/>
		<path fill="none" stroke="#999999" stroke-width="6" stroke-miterlimit="10" d="M725,230.2c-2,0-4,0-6,0"/>
		<g>
			<path fill="#999999" d="M1175.1,331.6c-3.8-8.4-7.5-20-8.1-28.8l-6.6,14l-14,6.5C1155.2,323.9,1166.7,327.7,1175.1,331.6z"/>
		</g>
	</g>
</g>
<g>
	<g>
		<path fill="none" stroke="#999999" stroke-width="6" stroke-miterlimit="10" stroke-dasharray="12,12" d="M534.9,232.7
			c0,0-92.4-1.1-160,48.9"/>
		<g>
			<path fill="#999999" d="M360.6,293.3c4.7-8,9.7-19,11.2-27.8l5.1,14.6l13.2,8C381.2,287.8,369.4,290.3,360.6,293.3z"/>
		</g>
	</g>
</g>
</svg>
