<?xml version="1.0" encoding="utf-8"?>
<!-- Generator: Adobe Illustrator 18.1.1, SVG Export Plug-In . SVG Version: 6.00 Build 0)  -->
<svg version="1.1" id="Layer_1" xmlns="http://www.w3.org/2000/svg" xmlns:xlink="http://www.w3.org/1999/xlink" x="0px" y="0px"
	 viewBox="0 0 1280 800" enable-background="new 0 0 1280 800" xml:space="preserve">
<g>
	<line fill="none" stroke="#F7931E" stroke-width="3" stroke-miterlimit="10" x1="807" y1="373.5" x2="1039" y2="373.5"/>
	<line fill="none" stroke="#F7931E" stroke-width="3" stroke-miterlimit="10" x1="433" y1="373.5" x2="811" y2="373.5"/>
	<g>
		<path fill="#F7931E" d="M122.6,419h-91c0,0-6.4,5,0,9c6.6,0,5.5,0,5.5,0s26.9,6.7,32,29.7c15.9-5.4,41-4.6,45.9,17
			c7.2-10.5,20-16.4,21-15.8c0,10.1,0,17.2,0,17.2s3.8,27.6,29,31.5c2,0.3,3.7,0.5,5.9,0.4c30.9-0.2,33.1-27.4,33.1-32.7
			c0-5.2,0-16.5,0-16.5s12.4,1,21.7,15.9c4.5-16.1,23.2-26.8,46-17.7c1.9-10.5,18.2-28,32.8-31.2c5.6,0.1,5.7-0.4,5.7-0.4
			s10-3.5,0.1-6.5c-9.9,0-91.8,0-91.8,0s2.8-6.7,2.4-13.5s-0.8-65.5-0.8-65.5l-18.6,23.6c0,0-30.7-19.2-60.8,0.4
			c-19-23.9-19.8-23.9-19.8-23.9l-0.6,69.3C120.2,409.6,121,419,122.6,419z"/>
		<path fill="#F7931E" d="M165,508v19.7c0,0,3,2.8,4,0c0-8.2,0-8.2,0-8.2V508H165z"/>
		<path fill="#F7931E" d="M177,508v20c0,0,1,2,1,0c0-7,0-8.5,0-8.5V508H177z"/>
		<circle fill="#FFFFFF" cx="147" cy="401" r="8.7"/>
		<circle fill="#FFFFFF" cx="195.1" cy="401" r="8.7"/>
		<polygon fill="#FFFFFF" points="154.9,419 160,419 157.7,427 		"/>
		<polygon fill="#FFFFFF" points="181.8,419 186.8,419 184.5,427 		"/>
	</g>
	<g>
		<rect x="1182.5" y="449" fill="#F7931E" width="20.2" height="82.4"/>
		<rect x="1207.4" y="450.1" fill="#F7931E" width="20.2" height="81.3"/>
		<circle fill="#F7931E" cx="1192.6" cy="530.7" r="10.1"/>
		<circle fill="#F7931E" cx="1217.5" cy="530.7" r="10.1"/>
		<path fill="#F7931E" d="M1225.1,452.3H1185c-1.4,0-2.5-1.1-2.5-2.5v-78.6c0-1.4,1.1-2.5,2.5-2.5h40.1c1.4,0,2.5,1.1,2.5,2.5v78.6
			C1227.6,451.2,1226.4,452.3,1225.1,452.3z"/>
		<path fill="#F7931E" d="M1186.4,396.2h-7.9h-14.9c0,0-2.9-23.9,20.2-27.5"/>
		<rect x="1163.5" y="394.9" fill="#F7931E" width="15.3" height="50.5"/>
		<ellipse fill="#F7931E" cx="1171.2" cy="445.4" rx="7.6" ry="7.6"/>
		<path fill="#F7931E" d="M1222.9,396.2h8.1h15.3c0,0,3.5-23.9-20.3-27.5"/>
		<rect x="1231" y="395" fill="#F7931E" width="15.5" height="50.4"/>
		<ellipse fill="#F7931E" cx="1238.8" cy="444.9" rx="7.8" ry="7.5"/>
		<circle fill="#F7931E" cx="1205" cy="346.8" r="17.2"/>
	</g>
	<path fill="none" stroke="#999999" stroke-width="3" stroke-miterlimit="10" d="M334,422.5h98.5c0-264,0-264,0-264H666"/>
	<path fill="none" stroke="#999999" stroke-width="3" stroke-miterlimit="10" d="M334,435.5h98.5c0,267,0,265,0,265H666"/>
	<g>
		<path opacity="0.67" fill="#4D4D4D" d="M793,140.1c-1.3-1.5-5.3-3.3-5.3-3.3s-1.7-0.7-0.6-8.2c1.6-9.2-8.3-18.7-8.3-18.7
			s-3.7-0.3-5.7-9.1c-0.9-1.4-1.1-2.9-2-3.8c-11.1-12.9-19.1,6.1-19.1,6.1s-4.3,1.6-5.9-6.8c-1-1.6-0.4-3.3-2.4-5.1
			c-9.1-8-19.1,4.2-19.1,4.2s-0.6,4.1-3.4,5.4c-2.7,1.2-8,6.8-8,6.8s-1.8,4.3-7.8,8.4c-10.8,5.4-10.5-1.4-11.5-2.8
			c-1-1.4-1.3-11.8-0.1-13.6c1.2-1.8,1.2-5.7-3.1-9.7c-1.7-4.4-6.1-2.6-6.1-2.6s-0.4,1.6-5.5-0.1c-1.7-1.3-5.2,1.9-7.7,1.9
			c0,0-6.2,0-9.6,0s-4.2,1.5-5,4.1c-4.5,1.1-1.2,4.3-1.2,4.3s-2.5,2.2,0.8,3c3.3,0.8,6-1,6-0.5c0,0.5,5,3.2,7.4,3.2
			c-0.2,1.8,2.2,4.4,2.2,4.4s0.4,0.7,1.9,3c-0.2,9.3,3.8,23.7,9.8,30.2c7.7,8.4,17.7,7.7,17.7,7.7c-1.3,0.7,0.9,8.4,0.9,8.4
			s2.6,6.8,0.8,8c-1.7,1.2-0.8,8.8-0.8,8.8l-3.6,9c0,0-3.3,3.7-3.4,5.1c0.7,2.2-2.1,2.7-2.1,2.7s-0.7,0.2-4.5,0.3s-1.5,3.3-1.5,3.3
			c0,0,0.1,0,0.9,0c-0.5,0,0.6,1.2,0.6,1.2s6.4,0.2,9.8-0.4c3.4-0.6,2.2-5.3,2.2-5.3s4.2-11,5.6-16c2-0.8,3.4-5.2,3.1-7.4
			c0.8-0.2,3.1-4.4,6.4-14.4c4-9.2,6-0.8,6-0.8s9.3,15.1,8.7,18.2c-0.6,3.1,2.1,5.7,2.1,5.7l-0.4,16.5l-0.9,0.4l-0.1,1.2
			c-0.2,0-0.7,0.1-2.1,0.4c-2.7,0.6-3.1,3.8-3.1,3.8l3,0.2l-0.4,1.3c0,0,4.1,0.6,8.2-0.6c4.1-1.2,1.9-3.3,1.9-3.3l-0.7-1.1
			c0,0,5.8-0.1,6.6-0.2c0.8-0.1,2.2-1.1,1.2-3.1c2,0,2.7-4.4,2.7-4.4s2.5-9,5.4-10.8c2.9-1.8,4.7-9.7,4.6-10.9s1.4-6,1.4-6
			s1.3-3.7,5.7-12.9c-0.3-1.9,3.9-6.9,3.3,0c-0.7,5.5,3.4,9.2,3.4,9.2s4.5,5.5,2.6,8.6c-2,3.1,1.1,8.1,1.1,8.1l0.9,16.6
			c0,0-0.1,3.9-3.6,5.2c-3.6,1.2-1.9,3.1-1.9,3.1h2.2l-0.4,1.3c0,0,2.2,0.7,7,0.5s1.2-5.6,1.2-5.6l-0.8-19.7c0,0,2-8.1,0.3-9.6
			c-1.7-1.5-0.2-7.7-0.3-10.1c-0.1-2.4,4.2-13.1,4.2-13.1s6.4,4.4,9.4,4.4S794.3,141.6,793,140.1z M744.8,184.1
			c-2,3-6.9,5.8-6.9,5.8s-2.8-8.5-1.7-11.6c1.1-3.1,2.6-11.4,0.7-12.1c-1-3.4,0.7-6.3,0.7-6.3s1.4-10,0.3-10.3c0,0,9,1,11.5-1.2
			c1.4,2.4,0.7,7.1,0.7,7.1s-0.8,6.9,0.2,8.9C751.1,166.5,746.7,181.1,744.8,184.1z"/>
		
			<rect x="682" y="119.1" transform="matrix(1 -2.902192e-03 2.902192e-03 1 -0.3724 2.1305)" fill="none" width="103.7" height="20.5"/>
		
			<text transform="matrix(1 0 0 1 708.3682 133.3578)" fill="#FFFFFF" font-family="'SanFranciscoDisplay-Medium'" font-size="20.479">MERS</text>
	</g>
	<path fill="none" stroke="#999999" stroke-width="3" stroke-miterlimit="10" d="M1138,420.5h-98.5c0-266,0-265,0-265H807"/>
	<line fill="none" stroke="#999999" stroke-width="3" stroke-miterlimit="10" x1="433" y1="266.5" x2="666" y2="266.5"/>
	<g>
		<path opacity="0.67" fill="#F15A24" d="M691.2,241.3c0,0-5.3,11.1-2.2,18.6c2.2,4.9-0.2,6-2.2,7.9c-1.9,1.9,0.5,5.9,0.5,5.9
			l0.1,9.6c0,0-1.1,1.7,0.9,3.1c1,1.7,1,1.7,1,1.7h4.3l-2.7-2.6c0,0,1.6-8.8,1.1-9.4c-0.5-0.6,1.7-2.6,2.2-2.6
			c0.5,0,7.9-6.3,8.1-7.2c0.2-0.9,0.8,0.4,0.8,0.4v6.4c0,0,1.1-0.1,2,1.5s4.6,6.2,7.4,7.9c0,1.5,0.4,1.3,0.4,1.3l2,0.4
			c0,0,0.5,1.7,1,1.9c0.5,0.2,4,0,4,0s-7.8-10.7-8-11.9c-0.2-1.2-1.1-7,1.2-11c3,3.5,10.4,6.7,15.3,7.2c7.5,0.8,12.9-3.7,12.9-3.7
			s-1.3,7.1-0.9,8.1c-0.4,3.2-2.7,5.9-2.7,5.9s-1.3,3.3,0.2,3.6c0.1,1.7,2.1,2.8,2.1,2.8l5.9-0.1c0,0-2.4-4.2-3.2-4.5
			c-0.8-0.2,0.7-4.6,3.7-7.1s5.6-6.2,5.6-6.6c0.1-0.3,9,8.7,10.7,17.3c1.5-1.2,1.5-1.2,1.5-1.2l0.9,1.9l2.2,2.2h5
			c0,0-4.3-5.5-5.1-6.7c-0.8-1.2-1.5-9.7-1.1-13.1c0.4-3.4,5.7-6.8,12.3-3.6c10.4,2,14.7,0.2,14.9-0.1s2.4-4.5,2.2-6.5
			c-1.6,0.7-2,0-2,0s-7.6-2.4-9.1-11.1c3.7-2.7,4.4-10,1.5-9.7c-3.5,2.4-4.6,4.8-4.6,4.8s-1.5,2-3.3,0.2
			c-0.6-0.6-16.7-8.5-28.7-10.3c-22.4-3.2-47.8-0.1-54.5,5.8c0.8-3.7-2.8-5-4.9-3.5C687.9,236.7,688.9,240.5,691.2,241.3z"/>
		
			<rect x="682.9" y="245.1" transform="matrix(1 -2.902192e-03 2.902192e-03 1 -0.7379 2.1335)" fill="none" width="103.7" height="20.5"/>
		
			<text transform="matrix(1 0 0 1 708.1318 259.3148)" fill="#FFFFFF" font-family="'SanFranciscoDisplay-Medium'" font-size="20.479">Nipah</text>
	</g>
	<line fill="none" stroke="#999999" stroke-width="3" stroke-miterlimit="10" x1="807" y1="266.5" x2="1039" y2="266.5"/>
	<line fill="none" stroke="#999999" stroke-width="3" stroke-miterlimit="10" x1="433" y1="481.5" x2="666" y2="481.5"/>
	<line fill="none" stroke="#999999" stroke-width="3" stroke-miterlimit="10" x1="433" y1="588.5" x2="666" y2="588.5"/>
	<path fill="none" stroke="#999999" stroke-width="3" stroke-miterlimit="10" d="M1138,435.5h-98.5c0,267,0,265,0,265H807"/>
	<line fill="none" stroke="#999999" stroke-width="3" stroke-miterlimit="10" x1="807" y1="481.5" x2="1039" y2="481.5"/>
	<line fill="none" stroke="#999999" stroke-width="3" stroke-miterlimit="10" x1="807" y1="588.5" x2="1039" y2="588.5"/>
	<g>
		<g opacity="0.67">
			<path fill="#4D4D4D" d="M691,526.2c0,0-1-4.7,3-10.7c4-5.9,7.1-8.9,8.3-17.7c0.4-9.1-0.4-17.6-3.3-19.8c-3.6-5-9.2-19.8-9-25.1
				c0.1-2.6-0.7-9.3,1.1-16.1c2.2-7.9,7.9-15.7,20.5-17.1c23.6-2.6,27.9,11.1,24.5,21.1c-1.9,5.4-6.2,9.5-10.5,9.7
				c-4.2,1.2-9.1,2.3-12.1,0.5c-6.3-3.8-8.2-8.2,1.6-16.3c2.7,0.1,4.6,2.5,2.7,3.6c-1.9,1.2-8.5,10.4,1,8.2
				c9.6-2.2,18.6-13.9,1.1-20.9c-13.9-1.9-24.5,7.3-22.8,23.1c1,9.2,3.6,11.3,6.2,12.1c1,0.3,2,0.4,2.9,0.3
				c3.1-0.3,33.2-9,57.2,11.7c0.3-3.3,2.8-5.4,6.2-6.5c4.6-1.5,10.9-0.3,13.9,2.8c1.9,3.9,0.7,3.8,0.7,3.8s2.3,0.6,4.1,1.8
				c2.4,1.7,4.1,5.8-0.3,7.6c-11.1,1.8-14.3,0.8-14.3,0.8s-1,10.4-11.2,14.8c-10.2,4.4-8.2,7.1-8.2,7.1l18,15.5c0,0,2.3,3.5,0.1,6.1
				c-2.2,2.6-2.5-2.3-2.5-2.3s-1.6-3.1-4.3-3.3c-2.7-0.2-19.8-10.1-21-13.2c-4.1-2.5-4.1-6.8,1.7-15.4c-6.1-6.5-24.3-12-30.2-9.7
				c0.1,8.6-8.3,33-18,38.4c2.3,0.4,4.5,0.7,5.9,1.4c3.2,1.5,4,3.7,4,3.7L691,526.2z"/>
			<path fill="#4D4D4D" d="M717,484.2v2.7c0,0,8.6,6.8,6,19.9c-7.3,12.3-6,19.5-6,19.5l16.2,0c0,0-5.4-6.7-10-4.7
				c5.3-5.5,11-18,10.7-18.9c-0.2-0.6,1.5-9.1-0.5-15.2C732.1,484,717,484.2,717,484.2z"/>
			<path fill="#4D4D4D" d="M763.2,500.2c0,0,7.8-4.3,8.9-7c1.1-2.8,0.7,8.2,9.2,13.7c9.8,5.2,16.9,8.6,15.3,13.5
				c-1.6,4.8-3.1-2-3.1-2s-3.7-3-7.4-2.8C782.4,515.8,764.1,505.5,763.2,500.2z"/>
		</g>
		
			<rect x="677.6" y="465" transform="matrix(1 -2.902192e-03 2.902192e-03 1 -1.3762 2.1192)" fill="none" width="103.7" height="20.5"/>
		
			<text transform="matrix(1 0 0 1 704.665 479.2372)" fill="#FFFFFF" font-family="'SanFranciscoDisplay-Medium'" font-size="20.479">Ebola</text>
	</g>
	<path opacity="0.67" fill="#F15A24" d="M685,561.7c0,0,0.1,0.8-2.2,1.7c-2.2,1.3-2.2,2.5-2.2,2.5s-0.8,1.2-2.1,1.6
		c-2.2,0.7-5.2,0.2-5-5.8c4.2-5.1,8-8.5,8-8.5s2.3-2.3,1.7-3.3c-1.4,0-1.3,0-1.3,0l-2.1,1c0,0-0.7-0.6,1.7-1.9
		c2.3-1.3,4.6-2.7,4.7-3.3c0.1-0.6,0.1-1.1-0.4-1.5c-0.5-0.4-1.3-1.3-1.3-1.3s-0.4-1.3,0.7-0.8s2.6,2,2.6,2l1.3,0.1l1.7-3.6l0.8,1.6
		c0,0,0.9,1.5,2.1,1.4c1.7,0.1,5.7,1,7.9,3.1c2.7,0,6.6,3.3,6.6,3.3s11.5,4.2,15.8,9.3c6.1,1.1,7.2,0.6,10.7,3.8
		c6.5-0.3,6.3-0.5,6.3-0.5s6-1.2,6.6-1.9c0.5-0.7,11-4.9,23-0.6c4.5,0.9,9.2,2,13,4.8c6.3,4.7,10.5,13,10.4,24
		c0.8,10.3,0.3,12.7,0,14.5c-0.3,1.7-2.2,6.8-1.8,8.8c-1.1-3.5-1.6-4.4-2-5.3c-0.6-0.1-3.9-18.6-4.4-20.9
		c-0.4-2.3,0.4,14.7,1.2,15.4c-1.7-0.5-1.6-3.6-1.5-4.8c0.1-1.2-3.1-11.9-3-14.7c0.1-2.9,0.2-14.6-3.7-15.4
		c-1.1,0.4-1.2-0.2-1.2-0.2s4.2,6.7-0.6,17.2c-4.8,10.5,1.6,15.1,4.1,17.4c-0.2,9.8,0.4,16.3,0.4,16.3s3.9,4.1-1.2,7
		c0.8,1.7,1.3,3.1-1.7,5.1c-3.6,0-4,0-4,0l3.1-5.6c0,0,2.4-8.5,1.2-12.1c-1.2-3.6-10-16.4-13.2-15.6c-0.4,6.9,1.4,8.3,1.4,8.3
		s-7.2,11.3-6.6,12.3c-1.2,4.6-2.8,4-3.4,4.3c-0.6,0.2,0.9,5.4-2.9,5.4c-3,0-3.2,0-3.2,0s-0.2-2.8,4.2-6.8c0.1-3.5,2.8-6.8,3.6-7.4
		s3.2-2.6,2.2-9.1c-1.5-5.7-3-6.4-3-6.4s-3.5-4.8-3.8-10.7c-9.3,3.9-12.7,3.8-12.7,3.8s-15.5,0.2-15.8,2.3c-0.4,2.1,0.5,10.9,0,11.6
		c-0.5,0.7-2.1,6-1.4,7.4c0.4,4.2,0.4,8.3,0.4,8.3s0.2,1.4-2,2.9c-2.2,1.5-0.4,2.4-0.4,2.4s2.2,2.3-1.6,3.4
		c-3.9,0.1-3.9,0.1-3.9,0.1s2.7-8.1,5-11.6c0.1-5.1,0.1-5.7,0.1-5.7s-2-6.4-1.8-7.2c0.2-0.8-0.9-8.8-1.9-7.6
		c-0.4,7.5-0.7,8.1-0.7,8.1s-0.3,2.2-1.9,3.6c-1.7,1.4-1.7,8.7-1.7,8.7s0.5,2.2-2.3,4.2c-1.9,2.3-1.4,3.6-1.4,3.6s-1.6,2.2-6.2,1.3
		c0-2.2,3.7-4.7,3.7-4.7s4.1-8.5,4.1-11.4c0.6-3.2,1.8-19.4,1.6-19.4c-0.2,0-6.1-3.2-5.2-11.4c-7.3-10.5-6.3-8.8-6.9-11.1
		c-0.5-2.3-3.6-12.9-11.8-6.1C686.4,562.5,685,561.7,685,561.7z"/>
	
		<rect x="690.5" y="565.2" transform="matrix(1 -2.902192e-03 2.902192e-03 1 -1.667 2.1569)" fill="none" width="103.7" height="20.5"/>
	
		<text transform="matrix(1 0 0 1 709.4082 579.4394)" fill="#FFFFFF" font-family="'SanFranciscoDisplay-Medium'" font-size="20.479">Hendra</text>
	<path opacity="0.67" fill="#4D4D4D" d="M663.7,679.4l-6.2,7.5c0,0-4.3,3.2,1.3,4.8c5.6,1.6,14.9,0.1,15.2-1.1
		c4.2,0.6,13.1-2.6,13.1-2.6l9.7,6.7l-1.5-3.4c0,0,5,3.7,6.1,3.4c1.1-0.2-2.9-4.3-2.9-4.3s3.4,2.3,4.2,2.4s-1.7,14.4-3.7,15.1
		c-2,0.6-5.1,0.2-4.4,4.2c2.7,0,2,0,2,0s4,1.9,7.5-1.9c3.4-3.8,7.2-12.1,7.2-12.1h5.1c0,0-2.2,5.6-1.8,8.1s-0.9,6.1-3.2,4.9
		c-3.7,0.2-2.8,3.3-2.8,3.3s0,2.7,2.1,1.1c0.7,1.7,3.1,0.5,3.1,0.5s2.4,1.7,4-1.2c1.6-2.9,9.9-16.4,10-21.1
		c4.9,1.1,21.3-4.8,21.3-4.8s9.5,12.3,13.2,13.8c0,5.5-3.2,7.6-3.2,7.6s-4-0.7-3.9,3.4c1.7,0.9,2.4,0.4,2.4,0.4s1.5,3.4,5.9,0.6
		c4.4-2.8,8.4-11.4,8.4-11.4s-3.5-2.3-4.5-6c4.5,3.1,13.3,5.6,15.9,5.6s5.7,4.5,4.9,7.2c-4.2,1.6-4.4,4.9-1.8,5.5c2,0.4,2-0.9,2-0.9
		s1.4,2.6,3.2,0.2c2.2,1.5,3.9-2.3,3.9-2.3s-1.1-12.8-3.1-14.7c-0.8-1.9-3.5-0.6-3.5-0.6s-5.6-1.6-9-11.9c-1.4-4.1-1.2-3.4-1.2-3.4
		l-0.3-0.9l11.9,5.6c0,0,24.6,12.2,52.8,4.8c28.2-7.5,48-10.8,48-10.8s22.9-5.4,36.4,3.1c6,3.2,16.4-0.9,16.4-4s-10.6-16.6-19.2-17
		s-25-6.8-55.8,1.2s-35.3,7.6-35.3,7.6s-39.3,5-55.5-4.6c-14.4-11.1-33.6-7.9-33.6-7.9s-35.1,6.5-36.4,9c-4.5-0.9-11.2,3.7-11.2,3.7
		s-4,0.1-5.7-1.8c1.1-2.3-1.5-8.6-6.4-4.2c-6.5,0.2-8.2,1.7-8.2,1.7s-2.2-3.1-4.9-1.7c-1.1-1.7-1.7-5.1-4.2-4.5
		c-0.5,0.1-0.9,1.6-0.8,3.7c0.2,6.2,2.5,6.6,2.5,6.6l-3.8,4C665,675.5,662.4,678.6,663.7,679.4z"/>
	<g>
		<ellipse transform="matrix(0.8435 0.5371 -0.5371 0.8435 486.8805 -253.1422)" cx="677.9" cy="709.1" rx="5.4" ry="3.8"/>
		<path fill="#FFFFFF" d="M674,705.5c0,0,1.9,0.4,3.2,2.3c1.3,1.9,1.7,2.8,3.1,3.6c1.5,0.8,2,0.7,2,0.7s-0.2,0.2-0.3,0.3
			c-0.1,0.1-0.2,0.2-0.2,0.2c0,0-2-0.4-3.2-2c-1.2-1.5-2-2.8-2-2.8s-1.3-1.7-3.1-1.9c0.2-0.2,0.2-0.2,0.3-0.3
			C673.9,705.6,673.8,705.7,674,705.5z"/>
		<path fill="#FFFFFF" d="M674,705.5c0,0-0.3,0.3-0.5,0.5c0.2,0,0.2,0,0.2,0L674,705.5z"/>
	</g>
	<g>
		<ellipse transform="matrix(0.9207 -0.3903 0.3903 0.9207 -222.0444 323.653)" cx="685.3" cy="708.1" rx="6.5" ry="4.6"/>
		<path fill="#FFFFFF" d="M679,709.5c0,0,1.8-1.7,4.5-1.7c2.8,0,3.9,0.2,5.7-0.6c1.8-0.9,2.1-1.5,2.1-1.5s0.1,0.3,0.1,0.6
			c0,0.2,0,0.3,0,0.3c-0.1,0-1.8,1.7-4.2,1.8c-2.4,0.1-4.1,0-4.1,0s-2.6,0.1-4,1.8c-0.1-0.3-0.1-0.4-0.1-0.4
			C679,709.7,679.1,709.9,679,709.5z"/>
		<path fill="#FFFFFF" d="M679,709.5c0,0,0,0.5,0.2,0.8c0.1-0.2,0.1-0.2,0.1-0.2L679,709.5z"/>
	</g>
	
		<rect x="682.5" y="671.2" transform="matrix(1 -2.902192e-03 2.902192e-03 1 -1.9745 2.134)" fill="none" width="103.7" height="20.5"/>
	
		<text transform="matrix(1 0 0 1 710.3691 685.4003)" fill="#FFFFFF" font-family="'SanFranciscoDisplay-Medium'" font-size="20.479">SARS</text>
	<polygon fill="#999999" stroke="#999999" stroke-miterlimit="10" points="1128.5,443.8 1128.5,412.4 1159.5,428.1 	"/>
	<polygon fill="#F7931E" points="722,389 722,356.2 754.4,372.6 	"/>
	<polygon fill="#999999" stroke="#999999" stroke-miterlimit="10" points="440.2,401.5 425.4,401.5 432.8,386.8 	"/>
	<polygon fill="#999999" stroke="#999999" stroke-miterlimit="10" points="425.4,454.5 440.2,454.5 432.8,469.2 	"/>
</g>
</svg>
